<svg xmlns="http://www.w3.org/2000/svg" xmlns:xlink="http://www.w3.org/1999/xlink" viewBox="0 0 150 150" width="150" height="150" preserveAspectRatio="xMidYMid slice" style="width: 100%; height: 100%; transform: translate3d(0px, 0px, 0px); content-visibility: visible;"><defs><clipPath id="__lottie_element_37"><rect width="150" height="150" x="0" y="0"></rect></clipPath></defs><g clip-path="url(#__lottie_element_37)"><g transform="matrix(1,0,0,1,41,9.720001220703125)" opacity="1" style="display: block;"><g opacity="1" transform="matrix(1,0,0,1,0,0)"><g opacity="1" transform="matrix(1,0,0,1,0.5,64.80000305175781)"><path fill="rgb(249,246,224)" fill-opacity="1" d=" M0.5,-46 C0.5,-46 -0.5,-46 -0.5,-46 C-0.5,-46 -0.5,46 -0.5,46 C-0.5,46 0.5,46 0.5,46 C0.5,46 0.5,-46 0.5,-46z"></path></g><g opacity="1" transform="matrix(1,0,0,1,61.5,105.30000305175781)"><path fill="rgb(249,246,224)" fill-opacity="1" d=" M0.5,-86.61699676513672 C0.5,-86.61699676513672 -0.5,-86.61699676513672 -0.5,-86.61699676513672 C-0.5,-86.61699676513672 -0.5,5.5 -0.5,5.5 C-0.5,5.5 0.5,5.5 0.5,5.5 C0.5,5.5 0.5,-86.61699676513672 0.5,-86.61699676513672z"></path></g><g opacity="1" transform="matrix(1,0,0,1,31,110.30000305175781)"><path fill="rgb(249,246,224)" fill-opacity="1" d=" M30,-0.5 C30,-0.5 -30,-0.5 -30,-0.5 C-30,-0.5 -30,0.5 -30,0.5 C-30,0.5 30,0.5 30,0.5 C30,0.5 30,-0.5 30,-0.5z"></path></g><g opacity="1" transform="matrix(1,0,0,1,11,19.299999237060547)"><path fill="rgb(249,246,224)" fill-opacity="1" d=" M51,-0.5 C51,-0.5 -11,-0.5 -11,-0.5 C-11,-0.5 -11,0.5 -11,0.5 C-11,0.5 51,0.5 51,0.5 C51,0.5 51,-0.5 51,-0.5z"></path></g><g opacity="1" transform="matrix(1,0,0,1,11,25.299999237060547)"><path fill="rgb(249,246,224)" fill-opacity="1" d=" M50.97700119018555,-0.5 C50.97700119018555,-0.5 -11,-0.5 -11,-0.5 C-11,-0.5 -11,0.5 -11,0.5 C-11,0.5 50.97700119018555,0.5 50.97700119018555,0.5 C50.97700119018555,0.5 50.97700119018555,-0.5 50.97700119018555,-0.5z"></path></g><g opacity="1" transform="matrix(1,0,0,1,31,67.80000305175781)"><path fill="rgb(249,246,224)" fill-opacity="1" d=" M26,-37.987998962402344 C26,-37.987998962402344 -26,-38 -26,-38 C-26,-38 -26,38 -26,38 C-26,38 26,38 26,38 C26,38 26,-37.987998962402344 26,-37.987998962402344z"></path></g></g></g><g transform="matrix(1,0,0,1,19,19.5)" opacity="1" style="display: block;"><g opacity="1" transform="matrix(1,0,0,1,0,0)"><g opacity="1" transform="matrix(1,0,0,1,0,0)"><path fill="rgb(20,20,18)" fill-opacity="1" d=" M83.5469970703125,9.07800006866455 C83.5469970703125,9.07800006866455 22.452999114990234,9.07800006866455 22.452999114990234,9.07800006866455 C22.452999114990234,9.07800006866455 22.492000579833984,100.08599853515625 22.492000579833984,100.08599853515625 C22.492000579833984,100.08599853515625 83.5469970703125,100.08599853515625 83.5469970703125,100.08599853515625 C83.5469970703125,100.08599853515625 83.5469970703125,9.07800006866455 83.5469970703125,9.07800006866455z"></path></g><g opacity="1" transform="matrix(1,0,0,1,22.5,54.79999923706055)"><path fill="rgb(249,246,224)" fill-opacity="1" d=" M0.5,-46 C0.5,-46 -0.5,-46 -0.5,-46 C-0.5,-46 -0.5,46 -0.5,46 C-0.5,46 0.5,46 0.5,46 C0.5,46 0.5,-46 0.5,-46z"></path></g><g opacity="1" transform="matrix(1,0,0,1,53,9.300000190734863)"><path fill="rgb(249,246,224)" fill-opacity="1" d=" M31,-0.5 C31,-0.5 -31,-0.5 -31,-0.5 C-31,-0.5 -31,0.5 -31,0.5 C-31,0.5 31,0.5 31,0.5 C31,0.5 31,-0.5 31,-0.5z"></path></g><g opacity="1" transform="matrix(1,0,0,1,53,100.30000305175781)"><path fill="rgb(249,246,224)" fill-opacity="1" d=" M30,-0.5 C30,-0.5 -30,-0.5 -30,-0.5 C-30,-0.5 -30,0.5 -30,0.5 C-30,0.5 30,0.5 30,0.5 C30,0.5 30,-0.5 30,-0.5z"></path></g><g opacity="1" transform="matrix(1,0,0,1,83.5,36.79999923706055)"><path fill="rgb(249,246,224)" fill-opacity="1" d=" M0.5,-28 C0.5,-28 0.5,63.62300109863281 0.5,63.62300109863281 C0.5,63.62300109863281 -0.5,64.322998046875 -0.5,64.322998046875 C-0.5,64.322998046875 -0.5,-28 -0.5,-28 C-0.5,-28 0.5,-28 0.5,-28z"></path></g><g opacity="1" transform="matrix(1,0,0,1,53,15.300000190734863)"><path fill="rgb(249,246,224)" fill-opacity="1" d=" M30,-0.5 C30,-0.5 -30,-0.5 -30,-0.5 C-30,-0.5 -30,0.5 -30,0.5 C-30,0.5 30,0.5 30,0.5 C30,0.5 30,-0.5 30,-0.5z"></path></g></g></g><g transform="matrix(0,-1,1,0,96.57799530029297,146.22357177734375)" opacity="1" style="display: block;"><g opacity="1" transform="matrix(1,0,0,1,0,0)"><path stroke-linecap="butt" stroke-linejoin="miter" fill-opacity="0" stroke-miterlimit="4" stroke="rgb(249,246,224)" stroke-opacity="1" stroke-width="1" d=" M35.98400115966797,-4.5 C35.98400115966797,-4.5 28.562000274658203,9.5 28.562000274658203,9.5 C28.562000274658203,9.5 13.562000274658203,15.515999794006348 13.562000274658203,15.515999794006348 C13.562000274658203,15.515999794006348 28.562000274658203,21.5 28.562000274658203,21.5 C28.562000274658203,21.5 35.98400115966797,34.5 35.98400115966797,34.5 C35.98400115966797,34.5 45.5620002746582,21.5 45.5620002746582,21.5 C45.5620002746582,21.5 59.5620002746582,15.484000205993652 59.5620002746582,15.484000205993652 C59.5620002746582,15.484000205993652 45.5620002746582,9.5 45.5620002746582,9.5 C45.5620002746582,9.5 35.98400115966797,-4.5 35.98400115966797,-4.5z"></path></g></g><g transform="matrix(1,0,0,1,19.099998474121094,18.892173767089844)" opacity="1" style="display: block;"><g opacity="1" transform="matrix(1,0,0,1,63.900001525878906,36.400001525878906)"><path fill="rgb(249,246,224)" fill-opacity="1" d=" M0,-36.400001525878906 C0,-36.400001525878906 10.800000190734863,-12.800000190734863 10.800000190734863,-12.800000190734863 C10.800000190734863,-12.800000190734863 30.399999618530273,0 30.399999618530273,0 C30.399999618530273,0 10.800000190734863,12.899999618530273 10.800000190734863,12.899999618530273 C10.800000190734863,12.899999618530273 0,36.400001525878906 0,36.400001525878906 C0,36.400001525878906 -10.699999809265137,12.899999618530273 -10.699999809265137,12.899999618530273 C-10.699999809265137,12.899999618530273 -30.399999618530273,0 -30.399999618530273,0 C-30.399999618530273,0 -10.699999809265137,-12.800000190734863 -10.699999809265137,-12.800000190734863 C-10.699999809265137,-12.800000190734863 0,-36.400001525878906 0,-36.400001525878906z"></path></g></g><g transform="matrix(1,0,0,1,18.838729858398438,7.276115417480469)" opacity="1" style="display: none;"><g opacity="1" transform="matrix(1,0,0,1,63.900001525878906,36.400001525878906)"><path fill="rgb(249,246,224)" fill-opacity="1" d=" M0,-36.400001525878906 C0,-36.400001525878906 10.371309280395508,-12.802858352661133 10.371309280395508,-12.802858352661133 C10.371309280395508,-12.802858352661133 29.099637985229492,0.20714348554611206 29.099637985229492,0.20714348554611206 C29.099637985229492,0.20714348554611206 10.428467750549316,12.908574104309082 10.428467750549316,12.908574104309082 C10.428467750549316,12.908574104309082 0,36.400001525878906 0,36.400001525878906 C0,36.400001525878906 -10.314178466796875,12.907087326049805 -10.314178466796875,12.907087326049805 C-10.314178466796875,12.907087326049805 -29.64984703063965,-0.29288169741630554 -29.64984703063965,-0.29288169741630554 C-29.64984703063965,-0.29288169741630554 -10.371336936950684,-12.800000190734863 -10.371336936950684,-12.800000190734863 C-10.371336936950684,-12.800000190734863 0,-36.400001525878906 0,-36.400001525878906z"></path></g></g><g transform="matrix(1,0,0,1,19.099998474121094,7.091129302978516)" opacity="1" style="display: none;"><g opacity="1" transform="matrix(1,0,0,1,63.900001525878906,36.400001525878906)"><path fill="rgb(249,246,224)" fill-opacity="1" d=" M0,-36.400001525878906 C0,-36.400001525878906 10.800000190734863,-12.800000190734863 10.800000190734863,-12.800000190734863 C10.800000190734863,-12.800000190734863 30.399999618530273,0 30.399999618530273,0 C30.399999618530273,0 10.800000190734863,12.899999618530273 10.800000190734863,12.899999618530273 C10.800000190734863,12.899999618530273 0,36.400001525878906 0,36.400001525878906 C0,36.400001525878906 -10.699999809265137,12.899999618530273 -10.699999809265137,12.899999618530273 C-10.699999809265137,12.899999618530273 -30.399999618530273,0 -30.399999618530273,0 C-30.399999618530273,0 -10.699999809265137,-12.800000190734863 -10.699999809265137,-12.800000190734863 C-10.699999809265137,-12.800000190734863 0,-36.400001525878906 0,-36.400001525878906z"></path></g></g><g transform="matrix(1,0,0,1,18.95281982421875,7.2135162353515625)" opacity="1" style="display: none;"><g opacity="1" transform="matrix(1,0,0,1,63.900001525878906,36.400001525878906)"><path fill="rgb(249,246,224)" fill-opacity="1" d=" M0,-36.400001525878906 C0,-36.400001525878906 10.55850887298584,-12.801609992980957 10.55850887298584,-12.801609992980957 C10.55850887298584,-12.801609992980957 29.667476654052734,0.11668845266103745 29.667476654052734,0.11668845266103745 C29.667476654052734,0.11668845266103745 10.590707778930664,12.904829978942871 10.590707778930664,12.904829978942871 C10.590707778930664,12.904829978942871 0,36.400001525878906 0,36.400001525878906 C0,36.400001525878906 -10.482658386230469,12.903992652893066 -10.482658386230469,12.903992652893066 C-10.482658386230469,12.903992652893066 -29.9774227142334,-0.16498665511608124 -29.9774227142334,-0.16498665511608124 C-29.9774227142334,-0.16498665511608124 -10.514857292175293,-12.800000190734863 -10.514857292175293,-12.800000190734863 C-10.514857292175293,-12.800000190734863 0,-36.400001525878906 0,-36.400001525878906z"></path></g></g><g transform="matrix(1,0,0,1,19.099998474121094,18.892173767089844)" opacity="1" style="display: block;"><g opacity="1" transform="matrix(1,0,0,1,63.900001525878906,36.400001525878906)"><path fill="rgb(249,246,224)" fill-opacity="1" d=" M0,-36.400001525878906 C0,-36.400001525878906 10.800000190734863,-12.800000190734863 10.800000190734863,-12.800000190734863 C10.800000190734863,-12.800000190734863 30.399999618530273,0 30.399999618530273,0 C30.399999618530273,0 10.800000190734863,12.899999618530273 10.800000190734863,12.899999618530273 C10.800000190734863,12.899999618530273 0,36.400001525878906 0,36.400001525878906 C0,36.400001525878906 -10.699999809265137,12.899999618530273 -10.699999809265137,12.899999618530273 C-10.699999809265137,12.899999618530273 -30.399999618530273,0 -30.399999618530273,0 C-30.399999618530273,0 -10.699999809265137,-12.800000190734863 -10.699999809265137,-12.800000190734863 C-10.699999809265137,-12.800000190734863 0,-36.400001525878906 0,-36.400001525878906z"></path></g></g><g transform="matrix(1,0,0,1,15.228507995605469,11.119972229003906)" opacity="1" style="display: none;"><g opacity="1" transform="matrix(1,0,0,1,63.900001525878906,36.400001525878906)"><path fill="rgb(249,246,224)" fill-opacity="1" d=" M0,-36.400001525878906 C0,-36.400001525878906 -1.334254264831543,-12.807915687561035 -1.334254264831543,-12.807915687561035 C-1.334254264831543,-12.807915687561035 -4.104729652404785,0.9739797115325928 -4.104729652404785,0.9739797115325928 C-4.104729652404785,0.9739797115325928 -1.0658645629882812,12.951554298400879 -1.0658645629882812,12.951554298400879 C-1.0658645629882812,12.951554298400879 0,36.400001525878906 0,36.400001525878906 C0,36.400001525878906 1.0592542886734009,12.939502716064453 1.0592542886734009,12.939502716064453 C1.0592542886734009,12.939502716064453 1.6338454484939575,-1.3770384788513184 1.6338454484939575,-1.3770384788513184 C1.6338454484939575,-1.3770384788513184 0.8196714520454407,-12.782916069030762 0.8196714520454407,-12.782916069030762 C0.8196714520454407,-12.782916069030762 0,-36.400001525878906 0,-36.400001525878906z"></path></g></g><g transform="matrix(1,0,0,1,15.315074920654297,10.962432861328125)" opacity="1" style="display: none;"><g opacity="1" transform="matrix(1,0,0,1,63.900001525878906,36.400001525878906)"><path fill="rgb(249,246,224)" fill-opacity="1" d=" M0,-36.400001525878906 C0,-36.400001525878906 -0.8774678707122803,-12.808849334716797 -0.8774678707122803,-12.808849334716797 C-0.8774678707122803,-12.808849334716797 -2.8446643352508545,1.0196539163589478 -2.8446643352508545,1.0196539163589478 C-2.8446643352508545,1.0196539163589478 -0.5964921116828918,12.952799797058105 -0.5964921116828918,12.952799797058105 C-0.5964921116828918,12.952799797058105 0,36.400001525878906 0,36.400001525878906 C0,36.400001525878906 0.6024678349494934,12.94079303741455 0.6024678349494934,12.94079303741455 C0.6024678349494934,12.94079303741455 0.24618607759475708,-1.4416139125823975 0.24618607759475708,-1.4416139125823975 C0.24618607759475708,-1.4416139125823975 0.3487424850463867,-12.783849716186523 0.3487424850463867,-12.783849716186523 C0.3487424850463867,-12.783849716186523 0,-36.400001525878906 0,-36.400001525878906z"></path></g></g><g transform="matrix(1,0,0,1,15.114189147949219,11.333564758300781)" opacity="1" style="display: none;"><g opacity="1" transform="matrix(1,0,0,1,63.900001525878906,36.400001525878906)"><path fill="rgb(249,246,224)" fill-opacity="1" d=" M0,-36.400001525878906 C0,-36.400001525878906 -1.9374641180038452,-12.806682586669922 -1.9374641180038452,-12.806682586669922 C-1.9374641180038452,-12.806682586669922 -5.768709659576416,0.9136646389961243 -5.768709659576416,0.9136646389961243 C-5.768709659576416,0.9136646389961243 -1.685694694519043,12.949910163879395 -1.685694694519043,12.949910163879395 C-1.685694694519043,12.949910163879395 0,36.400001525878906 0,36.400001525878906 C0,36.400001525878906 1.6624640226364136,12.937799453735352 1.6624640226364136,12.937799453735352 C1.6624640226364136,12.937799453735352 3.466320514678955,-1.291763424873352 3.466320514678955,-1.291763424873352 C3.466320514678955,-1.291763424873352 1.4415571689605713,-12.781682968139648 1.4415571689605713,-12.781682968139648 C1.4415571689605713,-12.781682968139648 0,-36.400001525878906 0,-36.400001525878906z"></path></g></g><g transform="matrix(1,0,0,1,75,74.39217376708984)" opacity="1" style="display: block;"><g opacity="1" transform="matrix(1,0,0,1,0,0)"><path fill="rgb(213,207,161)" fill-opacity="1" d=" M7.952933311462402,-55.0057487487793 C7.952933311462402,-55.0057487487793 7.960933208465576,-55.0057487487793 7.960933208465576,-55.0057487487793 C7.960933208465576,-55.0057487487793 -3.0940001010894775,-31.562000274658203 -3.0940001010894775,-31.562000274658203 C-3.0940001010894775,-31.562000274658203 -22.976999282836914,-19.023000717163086 -22.976999282836914,-19.023000717163086 C-22.976999282836914,-19.023000717163086 -2.812000036239624,-6.25 -2.812000036239624,-6.25 C-2.812000036239624,-6.25 7.929999828338623,17 7.929999828338623,17 C7.929999828338623,17 7.938000202178955,16.992000579833984 7.938000202178955,16.992000579833984 C7.938000202178955,16.992000579833984 -2.687999963760376,-6.188000202178955 -2.687999963760376,-6.188000202178955 C-2.687999963760376,-6.188000202178955 -22.983999252319336,-19.016000747680664 -22.983999252319336,-19.016000747680664 C-22.983999252319336,-19.016000747680664 -3.0859999656677246,-31.562000274658203 -3.0859999656677246,-31.562000274658203 C-3.0859999656677246,-31.562000274658203 7.952933311462402,-55.0057487487793 7.952933311462402,-55.0057487487793z"></path></g></g></g></svg>