<svg xmlns="http://www.w3.org/2000/svg" xmlns:xlink="http://www.w3.org/1999/xlink" viewBox="0 0 150 150" width="150" height="150" preserveAspectRatio="xMidYMid slice" style="width: 100%; height: 100%; transform: translate3d(0px, 0px, 0px); content-visibility: visible;"><defs><clipPath id="__lottie_element_57"><rect width="150" height="150" x="0" y="0"></rect></clipPath></defs><g clip-path="url(#__lottie_element_57)"><g class="pdf" transform="matrix(1,0,0,1,19.000003814697266,19.000003814697266)" opacity="1" style="display: block;"><g opacity="1" transform="matrix(1,0,0,1,51,62.5)"><path fill="rgb(249,246,224)" fill-opacity="1" d=" M47,24 C47,24 47,37.5 47,37.5 C47,37.5 -48,37.5 -48,37.5 C-48,37.5 -48,38.5 -48,38.5 C-48,38.5 48,38.5 48,38.5 C48,38.5 48,23.200000762939453 48,23.200000762939453 C47.900001525878906,23.299999237060547 47,24 47,24z M-48,-38.5 C-48,-38.5 -48,38.5 -48,38.5 C-48,38.5 -47,38.5 -47,38.5 C-47,38.5 -47,-37.5 -47,-37.5 C-47,-37.5 20.687999725341797,-37.5 20.687999725341797,-37.5 C20.687999725341797,-37.5 21.288000106811523,-38.5 21.288000106811523,-38.5 C21.288000106811523,-38.5 -48,-38.5 -48,-38.5z M13.899999618530273,-38.5 C13.899999618530273,-38.5 14.5,-37.5 14.5,-37.5 C14.5,-37.5 47,-37.5 47,-37.5 C47,-37.5 47,24.187999725341797 47,24.187999725341797 C47.29999923706055,24.38800048828125 47.599998474121094,24.687999725341797 47.79999923706055,24.88800048828125 C47.900001525878906,24.88800048828125 47.900001525878906,24.988000869750977 48,24.988000869750977 C48,24.988000869750977 48,-38.5 48,-38.5 C48,-38.5 13.899999618530273,-38.5 13.899999618530273,-38.5z"></path></g><g opacity="1" transform="matrix(1,0,0,1,83.4000015258789,30.5)"><path fill="rgb(249,246,224)" fill-opacity="1" d=" M-14.600000381469727,-0.5 C-14.600000381469727,-0.5 -14.100000381469727,0.5 -14.100000381469727,0.5 C-14.100000381469727,0.5 14.600000381469727,0.5 14.600000381469727,0.5 C14.600000381469727,0.5 14.600000381469727,-0.5 14.600000381469727,-0.5 C14.600000381469727,-0.5 -14.600000381469727,-0.5 -14.600000381469727,-0.5z"></path></g><g opacity="1" transform="matrix(1,0,0,1,51,104.5)"><path fill="rgb(249,246,224)" fill-opacity="1" d=" M7,3.5 C7,3.5 -7,3.5 -7,3.5 C-7,3.5 -7,-3.5 -7,-3.5 C-7,-3.5 7,-3.5 7,-3.5 C7,-3.5 7,3.5 7,3.5z M-8,-4.5 C-8,-4.5 -8,4.5 -8,4.5 C-8,4.5 8,4.5 8,4.5 C8,4.5 8,-4.5 8,-4.5 C8,-4.5 -8,-4.5 -8,-4.5z"></path></g><g opacity="1" transform="matrix(1,0,0,1,51,108.5)"><path fill="rgb(249,246,224)" fill-opacity="1" d=" M21,-0.5 C21,-0.5 -21,-0.5 -21,-0.5 C-21,-0.5 -21,0.5 -21,0.5 C-21,0.5 21,0.5 21,0.5 C21,0.5 21,-0.5 21,-0.5z"></path></g><g opacity="1" transform="matrix(1,0,0,1,20.5,30.5)"><path fill="rgb(249,246,224)" fill-opacity="1" d=" M-16.5,-0.5 C-16.5,-0.5 -16.5,0.5 -16.5,0.5 C-16.5,0.5 51.400001525878906,0.5 51.400001525878906,0.5 C51.400001525878906,0.5 52,-0.5 52,-0.5 C52,-0.5 -16.5,-0.5 -16.5,-0.5z"></path></g></g><g transform="matrix(1,0,0,1,75,75)" opacity="1" style="display: block;"><g opacity="1" transform="matrix(1,0,0,1,0,0)"><path fill="rgb(20,20,18)" fill-opacity="1" d=" M-3.25,-51 C-3.25,-51 -40.0620002746582,7.468999862670898 -40.0620002746582,7.468999862670898 C-40.0620002746582,7.468999862670898 34.125,7.605999946594238 34.125,7.605999946594238 C34.125,7.605999946594238 -3.25,-51 -3.25,-51z"></path><path stroke-linecap="butt" stroke-linejoin="miter" fill-opacity="0" stroke-miterlimit="4" stroke="rgb(249,246,224)" stroke-opacity="1" stroke-width="1" d=" M-3.25,-51 C-3.25,-51 -40.0620002746582,7.468999862670898 -40.0620002746582,7.468999862670898 C-40.0620002746582,7.468999862670898 34.125,7.605999946594238 34.125,7.605999946594238 C34.125,7.605999946594238 -3.25,-51 -3.25,-51z"></path></g></g><g transform="matrix(1,0,0,1,19,19)" opacity="1" style="display: block;"><g opacity="1" transform="matrix(1,0,0,1,84.30000305175781,65.30000305175781)"><path fill="rgb(249,246,224)" fill-opacity="1" d=" M0,27.299999237060547 C15.07699966430664,27.299999237060547 27.299999237060547,15.07699966430664 27.299999237060547,0 C27.299999237060547,-15.07699966430664 15.07699966430664,-27.299999237060547 0,-27.299999237060547 C-15.07699966430664,-27.299999237060547 -27.299999237060547,-15.07699966430664 -27.299999237060547,0 C-27.299999237060547,15.07699966430664 -15.07699966430664,27.299999237060547 0,27.299999237060547z"></path></g></g><g transform="matrix(1,0,0,1,19,19)" opacity="1" style="display: block;"><g opacity="1" transform="matrix(1,0,0,1,0,0)"><g opacity="1" transform="matrix(1,0,0,1,29.149999618530273,84.05000305175781)"><path fill="rgb(249,246,224)" fill-opacity="1" d=" M12.050000190734863,-14.949999809265137 C12.050000190734863,-14.949999809265137 -3.049999952316284,12.75 -3.049999952316284,12.75 C-3.049999952316284,12.75 -7.25,2.049999952316284 -7.25,2.049999952316284 C-7.25,2.049999952316284 -7.650000095367432,1.149999976158142 -7.650000095367432,1.149999976158142 C-7.650000095367432,1.149999976158142 -8.550000190734863,1.649999976158142 -8.550000190734863,1.649999976158142 C-8.550000190734863,1.649999976158142 -8.149999618530273,2.549999952316284 -8.149999618530273,2.549999952316284 C-8.149999618530273,2.549999952316284 -3.1500000953674316,15.050000190734863 -3.1500000953674316,15.050000190734863 C-3.1500000953674316,15.050000190734863 13.25,-15.050000190734863 13.25,-15.050000190734863 C13.25,-15.050000190734863 12.050000190734863,-15.050000190734863 12.050000190734863,-15.050000190734863 C12.050000190734863,-15.050000190734863 12.050000190734863,-14.949999809265137 12.050000190734863,-14.949999809265137z M-12.449999809265137,-6.550000190734863 C-12.449999809265137,-6.550000190734863 -13.25,-6.050000190734863 -13.25,-6.050000190734863 C-13.25,-6.050000190734863 -12.550000190734863,-5.25 -12.550000190734863,-5.25 C-12.550000190734863,-5.25 -11.649999618530273,-5.75 -11.649999618530273,-5.75 C-11.649999618530273,-5.75 -12.449999809265137,-6.550000190734863 -12.449999809265137,-6.550000190734863z"></path></g><g opacity="1" transform="matrix(1,0,0,1,14.5,84.69999694824219)"><path fill="rgb(249,246,224)" fill-opacity="1" d=" M7,0.5 C7,0.5 6.099999904632568,1 6.099999904632568,1 C6.099999904632568,1 -2,5.800000190734863 -2,5.800000190734863 C-2,5.800000190734863 -6.099999904632568,-1.100000023841858 -6.099999904632568,-1.100000023841858 C-6.099999904632568,-1.100000023841858 2,-5.900000095367432 2,-5.900000095367432 C2,-5.900000095367432 2.9000000953674316,-6.400000095367432 2.9000000953674316,-6.400000095367432 C2.9000000953674316,-6.400000095367432 2.200000047683716,-7.199999809265137 2.200000047683716,-7.199999809265137 C2.200000047683716,-7.199999809265137 1.399999976158142,-6.699999809265137 1.399999976158142,-6.699999809265137 C1.399999976158142,-6.699999809265137 -7.400000095367432,-1.399999976158142 -7.400000095367432,-1.399999976158142 C-7.400000095367432,-1.399999976158142 -2.299999952316284,7.199999809265137 -2.299999952316284,7.199999809265137 C-2.299999952316284,7.199999809265137 6.5,2 6.5,2 C6.5,2 7.400000095367432,1.5 7.400000095367432,1.5 C7.400000095367432,1.5 7,0.5 7,0.5z"></path></g><g opacity="1" transform="matrix(1,0,0,1,25.350000381469727,73.05000305175781)"><path fill="rgb(249,246,224)" fill-opacity="1" d=" M17.649999618530273,-4.949999809265137 C17.649999618530273,-4.949999809265137 17.149999618530273,-3.950000047683716 17.149999618530273,-3.950000047683716 C17.149999618530273,-3.950000047683716 -15.550000190734863,-3.950000047683716 -15.550000190734863,-3.950000047683716 C-15.550000190734863,-3.950000047683716 -8.550000190734863,4.449999809265137 -8.550000190734863,4.449999809265137 C-8.550000190734863,4.449999809265137 -9.350000381469727,4.949999809265137 -9.350000381469727,4.949999809265137 C-9.350000381469727,4.949999809265137 -17.649999618530273,-4.949999809265137 -17.649999618530273,-4.949999809265137 C-17.649999618530273,-4.949999809265137 17.649999618530273,-4.949999809265137 17.649999618530273,-4.949999809265137z"></path></g></g></g></g></svg>