<svg xmlns="http://www.w3.org/2000/svg" xmlns:xlink="http://www.w3.org/1999/xlink" viewBox="0 0 150 150" width="150" height="150" preserveAspectRatio="xMidYMid slice" style="width: 100%; height: 100%; transform: translate3d(0px, 0px, 0px); content-visibility: visible;"><defs><clipPath id="__lottie_element_5"><rect width="150" height="150" x="0" y="0"></rect></clipPath></defs><g clip-path="url(#__lottie_element_5)"><g transform="matrix(1,0,0,1,75,75)" opacity="1" style="display: block;"><g opacity="1" transform="matrix(1,0,0,1,-25.125,9.875)"><path stroke-linecap="butt" stroke-linejoin="miter" fill-opacity="0" stroke-miterlimit="4" stroke="rgb(249,246,224)" stroke-opacity="1" stroke-width="1" d=" M30.625,-45.375 C30.625,-45.375 30.625,45.375 30.625,45.375 C30.625,45.375 -30.625,45.375 -30.625,45.375 C-30.625,45.375 -30.625,-45.375 -30.625,-45.375 C-30.625,-45.375 30.625,-45.375 30.625,-45.375z"></path></g><g opacity="1" transform="matrix(1,0,0,1,-24.937999725341797,12.875)"><path stroke-linecap="butt" stroke-linejoin="miter" fill-opacity="0" stroke-miterlimit="4" stroke="rgb(249,246,224)" stroke-opacity="1" stroke-width="1" d=" M25.437999725341797,-37.5 C25.437999725341797,-37.5 25.437999725341797,37.5 25.437999725341797,37.5 C25.437999725341797,37.5 -25.437999725341797,37.5 -25.437999725341797,37.5 C-25.437999725341797,37.5 -25.437999725341797,-37.5 -25.437999725341797,-37.5 C-25.437999725341797,-37.5 25.437999725341797,-37.5 25.437999725341797,-37.5z"></path></g><g opacity="1" transform="matrix(1,0,0,1,0,0)"><path stroke-linecap="butt" stroke-linejoin="miter" fill-opacity="0" stroke-miterlimit="4" stroke="rgb(249,246,224)" stroke-opacity="1" stroke-width="1" d=" M-55.4379997253418,-29.5 C-55.4379997253418,-29.5 5.561999797821045,-29.5 5.561999797821045,-29.5"></path></g></g><g transform="matrix(0.9999997019767761,0,0,0.9999997019767761,75.5,75.74999237060547)" opacity="1" style="display: block;"><g opacity="1" transform="matrix(1,0,0,1,-7,-26)"><path fill="rgb(249,246,224)" fill-opacity="1" d=" M0,-30.125 C16.625988006591797,-30.125 30.125,-16.625988006591797 30.125,0 C30.125,16.625988006591797 16.625988006591797,30.125 0,30.125 C-16.625988006591797,30.125 -30.125,16.625988006591797 -30.125,0 C-30.125,-16.625988006591797 -16.625988006591797,-30.125 0,-30.125z"></path></g></g><g transform="matrix(0.1593674123287201,-0.6816172003746033,0.6816172003746033,0.1593674123287201,100.80412292480469,55.64348602294922)" opacity="1" style="display: block;"><g opacity="1" transform="matrix(1,0,0,1,0,0)"><path stroke-linecap="butt" stroke-linejoin="miter" fill-opacity="0" stroke-miterlimit="4" stroke="rgb(249,246,224)" stroke-opacity="1" stroke-width="1" d=" M35.9863395690918,-5.007236957550049 C35.9863395690918,-5.007236957550049 28.77226448059082,9.13444995880127 28.77226448059082,9.13444995880127 C28.77226448059082,9.13444995880127 14.064703941345215,15.513660430908203 14.064703941345215,15.513660430908203 C14.064703941345215,15.513660430908203 28.77226448059082,21.865549087524414 28.77226448059082,21.865549087524414 C28.77226448059082,21.865549087524414 35.9863395690918,35.01176834106445 35.9863395690918,35.01176834106445 C35.9863395690918,35.01176834106445 45.04116439819336,21.865549087524414 45.04116439819336,21.865549087524414 C45.04116439819336,21.865549087524414 59.04116439819336,15.486339569091797 59.04116439819336,15.486339569091797 C59.04116439819336,15.486339569091797 45.04116439819336,9.13444995880127 45.04116439819336,9.13444995880127 C45.04116439819336,9.13444995880127 35.9863395690918,-5.007236957550049 35.9863395690918,-5.007236957550049z"></path></g></g><g transform="matrix(1,0,0,1,75,75)" opacity="1" style="display: block;"><g opacity="1" transform="matrix(1,0,0,1,23.875,12.937999725341797)"><path fill="rgb(20,20,18)" fill-opacity="1" d=" M31.5,-28.5625 C31.5,-28.5625 31.5,28.5625 31.5,28.5625 C31.5,28.5625 -31.5,28.5625 -31.5,28.5625 C-31.5,28.5625 -31.5,-28.5625 -31.5,-28.5625 C-31.5,-28.5625 31.5,-28.5625 31.5,-28.5625z"></path><path stroke-linecap="butt" stroke-linejoin="miter" fill-opacity="0" stroke-miterlimit="4" stroke="rgb(249,246,224)" stroke-opacity="1" stroke-width="1" d=" M31.5,-28.5625 C31.5,-28.5625 31.5,28.5625 31.5,28.5625 C31.5,28.5625 -31.5,28.5625 -31.5,28.5625 C-31.5,28.5625 -31.5,-28.5625 -31.5,-28.5625 C-31.5,-28.5625 31.5,-28.5625 31.5,-28.5625z"></path></g></g><g transform="matrix(1,0,0,1,75,76.25)" opacity="1" style="display: block;"><g opacity="1" transform="matrix(1,0,0,1,0,0)"><path fill="rgb(20,20,18)" fill-opacity="1" d=" M21.687999725341797,18.375 C21.687999725341797,18.375 -37.4379997253418,18.375 -37.4379997253418,18.375 C-37.4379997253418,18.375 -35.625999450683594,48.1879997253418 -7.438000202178955,48.1879997253418 C20.75,48.1879997253418 21.687999725341797,18.375 21.687999725341797,18.375z"></path><path stroke-linecap="butt" stroke-linejoin="miter" fill-opacity="0" stroke-miterlimit="4" stroke="rgb(249,246,224)" stroke-opacity="1" stroke-width="1" d=" M21.687999725341797,18.375 C21.687999725341797,18.375 -37.4379997253418,18.375 -37.4379997253418,18.375 C-37.4379997253418,18.375 -35.625999450683594,48.1879997253418 -7.438000202178955,48.1879997253418 C20.75,48.1879997253418 21.687999725341797,18.375 21.687999725341797,18.375z"></path></g></g></g></svg>