<svg xmlns="http://www.w3.org/2000/svg" xmlns:xlink="http://www.w3.org/1999/xlink" viewBox="0 0 150 150" width="150" height="150" preserveAspectRatio="xMidYMid slice" style="width: 100%; height: 100%; transform: translate3d(0px, 0px, 0px); content-visibility: visible;"><defs><clipPath id="__lottie_element_21"><rect width="150" height="150" x="0" y="0"></rect></clipPath></defs><g clip-path="url(#__lottie_element_21)"><g transform="matrix(1,0,0,1,75,75)" opacity="1" style="display: block;"><g opacity="1" transform="matrix(1,0,0,1,-7.061999797821045,4)"><path fill="rgb(20,20,18)" fill-opacity="1" d=" M7.75,0.625 C7.75,0.625 7.811999797821045,36.375 7.811999797821045,36.375 C7.811999797821045,36.375 -46.5620002746582,36.5 -46.5620002746582,36.5 C-46.5620002746582,36.5 -46.625,0.75 -46.625,0.75 C-46.625,0.75 7.75,0.625 7.75,0.625z"></path><path stroke-linecap="butt" stroke-linejoin="miter" fill-opacity="0" stroke-miterlimit="4" stroke="rgb(249,246,224)" stroke-opacity="1" stroke-width="1" d=" M7.75,0.625 C7.75,0.625 7.811999797821045,36.375 7.811999797821045,36.375 C7.811999797821045,36.375 -46.5620002746582,36.5 -46.5620002746582,36.5 C-46.5620002746582,36.5 -46.625,0.75 -46.625,0.75 C-46.625,0.75 7.75,0.625 7.75,0.625z"></path></g><g opacity="1" transform="matrix(1,0,0,1,-6.938000202178955,6.25)"><path fill="rgb(249,246,224)" fill-opacity="1" d=" M3.375,2.75 C3.375,2.75 3.437999963760376,34.25 3.437999963760376,34.25 C3.437999963760376,34.25 -42.1879997253418,34.375 -42.1879997253418,34.375 C-42.1879997253418,34.375 -42.25,2.875 -42.25,2.875 C-42.25,2.875 3.375,2.75 3.375,2.75z"></path></g></g><g transform="matrix(1,0,0,1,75,108.625)" opacity="1" style="display: block;"><g opacity="1" transform="matrix(1,0,0,1,0,0)"><path fill="rgb(26,25,25)" fill-opacity="1" d=" M-36.75,-36.452999114990234 C-36.75,-36.452999114990234 -36.75,6.125 -36.75,6.125 C-36.75,6.125 34.4379997253418,6.125 34.4379997253418,6.125 C34.4379997253418,6.125 34.422000885009766,-54.5 34.422000885009766,-54.5 C34.422000885009766,-54.5 -18.391000747680664,-54.54600143432617 -18.391000747680664,-54.54600143432617 C-18.391000747680664,-54.54600143432617 -36.75,-36.452999114990234 -36.75,-36.452999114990234z"></path><path stroke-linecap="butt" stroke-linejoin="miter" fill-opacity="0" stroke-miterlimit="4" stroke="rgb(249,246,224)" stroke-opacity="1" stroke-width="1" d=" M-36.75,-36.452999114990234 C-36.75,-36.452999114990234 -36.75,6.125 -36.75,6.125 C-36.75,6.125 34.4379997253418,6.125 34.4379997253418,6.125 C34.4379997253418,6.125 34.422000885009766,-54.5 34.422000885009766,-54.5 C34.422000885009766,-54.5 -18.391000747680664,-54.54600143432617 -18.391000747680664,-54.54600143432617 C-18.391000747680664,-54.54600143432617 -36.75,-36.452999114990234 -36.75,-36.452999114990234z"></path></g></g><g transform="matrix(1,0,0,1,75,108.625)" opacity="1" style="display: block;"><g opacity="1" transform="matrix(1,0,0,1,0,0)"><path fill="rgb(20,20,18)" fill-opacity="1" d=" M-36.75,-54.5620002746582 C-36.75,-54.5620002746582 -36.75,-36.452999114990234 -36.75,-36.452999114990234 C-36.75,-36.452999114990234 -36.8120002746582,12.375 -36.8120002746582,12.375 C-36.8120002746582,12.375 34.375,12.375 34.375,12.375 C34.375,12.375 34.422000885009766,-54.5 34.422000885009766,-54.5 C34.422000885009766,-54.5 -18.391000747680664,-54.54600143432617 -18.391000747680664,-54.54600143432617 C-18.391000747680664,-54.54600143432617 -36.75,-54.5620002746582 -36.75,-54.5620002746582z"></path><path stroke-linecap="butt" stroke-linejoin="miter" fill-opacity="0" stroke-miterlimit="4" stroke="rgb(249,246,224)" stroke-opacity="1" stroke-width="1" d=" M-36.75,-54.5620002746582 C-36.75,-54.5620002746582 -36.75,-36.452999114990234 -36.75,-36.452999114990234 C-36.75,-36.452999114990234 -36.8120002746582,12.375 -36.8120002746582,12.375 C-36.8120002746582,12.375 34.375,12.375 34.375,12.375 C34.375,12.375 34.422000885009766,-54.5 34.422000885009766,-54.5 C34.422000885009766,-54.5 -18.391000747680664,-54.54600143432617 -18.391000747680664,-54.54600143432617 C-18.391000747680664,-54.54600143432617 -36.75,-54.5620002746582 -36.75,-54.5620002746582z"></path></g></g><g transform="matrix(1,0,0,1,75,75)" opacity="1" style="display: block;"><g opacity="1" transform="matrix(1,0,0,1,0,0)"><path fill="rgb(20,20,18)" fill-opacity="1" d=" M-0.35199999809265137,-42.5 C-0.35199999809265137,-42.5 -29.476999282836914,-21.4689998626709 -29.476999282836914,-21.4689998626709 C-29.476999282836914,-21.4689998626709 -53.52299880981445,-21.4689998626709 -53.52299880981445,-21.4689998626709 C-53.52299880981445,-21.4689998626709 -53.5,47 -53.5,47 C-53.5,47 39.48400115966797,47.007999420166016 39.48400115966797,47.007999420166016 C39.48400115966797,47.007999420166016 39.422000885009766,-42.492000579833984 39.422000885009766,-42.492000579833984 C39.422000885009766,-42.492000579833984 -0.35199999809265137,-42.5 -0.35199999809265137,-42.5z"></path><path stroke-linecap="butt" stroke-linejoin="miter" fill-opacity="0" stroke-miterlimit="4" stroke="rgb(249,246,224)" stroke-opacity="1" stroke-width="1" d=" M-0.35199999809265137,-42.5 C-0.35199999809265137,-42.5 -29.476999282836914,-21.4689998626709 -29.476999282836914,-21.4689998626709 C-29.476999282836914,-21.4689998626709 -53.52299880981445,-21.4689998626709 -53.52299880981445,-21.4689998626709 C-53.52299880981445,-21.4689998626709 -53.5,47 -53.5,47 C-53.5,47 39.48400115966797,47.007999420166016 39.48400115966797,47.007999420166016 C39.48400115966797,47.007999420166016 39.422000885009766,-42.492000579833984 39.422000885009766,-42.492000579833984 C39.422000885009766,-42.492000579833984 -0.35199999809265137,-42.5 -0.35199999809265137,-42.5z"></path></g></g><g transform="matrix(1,0,0,1,19,19)" opacity="1" style="display: block;"><g opacity="1" transform="matrix(1,0,0,1,76.5999984741211,49)"><path fill="rgb(249,246,224)" fill-opacity="1" d=" M-0.4000000059604645,10 C-5.900000095367432,10 -10.399999618530273,5.5 -10.399999618530273,0 C-10.399999618530273,-5.5 -5.900000095367432,-10 -0.4000000059604645,-10 C-0.4000000059604645,-10 10.399999618530273,-10 10.399999618530273,-10 C10.399999618530273,-10 10.399999618530273,10 10.399999618530273,10 C10.399999618530273,10 -0.4000000059604645,10 -0.4000000059604645,10z M10.899999618530273,-11 C10.899999618530273,-11 -0.4000000059604645,-11 -0.4000000059604645,-11 C-6.5,-11 -11.399999618530273,-6.099999904632568 -11.399999618530273,0 C-11.399999618530273,5 -8.199999809265137,9.100000381469727 -3.700000047683716,10.5 C-3.4000000953674316,10.600000381469727 -3,10.699999809265137 -2.700000047683716,10.800000190734863 C-2,11 -1.2000000476837158,11 -0.4000000059604645,11 C-0.4000000059604645,11 10.899999618530273,11 10.899999618530273,11 C11.199999809265137,11 11.399999618530273,10.800000190734863 11.399999618530273,10.5 C11.399999618530273,10.5 11.399999618530273,-10.5 11.399999618530273,-10.5 C11.399999618530273,-10.800000190734863 11.199999809265137,-11 10.899999618530273,-11z"></path></g><g opacity="1" transform="matrix(1,0,0,1,76.5999984741211,70)"><path fill="rgb(249,246,224)" fill-opacity="1" d=" M10.899999618530273,-11 C10.899999618530273,-11 -0.4000000059604645,-11 -0.4000000059604645,-11 C-1.2000000476837158,-11 -2,-10.899999618530273 -2.700000047683716,-10.800000190734863 C-3.0999999046325684,-10.699999809265137 -3.4000000953674316,-10.600000381469727 -3.700000047683716,-10.5 C-8.199999809265137,-9.100000381469727 -11.399999618530273,-5 -11.399999618530273,0 C-11.399999618530273,5 -8.199999809265137,9.100000381469727 -3.700000047683716,10.5 C-3.4000000953674316,10.600000381469727 -3,10.699999809265137 -2.700000047683716,10.800000190734863 C-2,11 -1.2000000476837158,11 -0.4000000059604645,11 C-0.4000000059604645,11 10.899999618530273,11 10.899999618530273,11 C11.199999809265137,11 11.399999618530273,10.800000190734863 11.399999618530273,10.5 C11.399999618530273,10.5 11.399999618530273,-10.5 11.399999618530273,-10.5 C11.399999618530273,-10.800000190734863 11.199999809265137,-11 10.899999618530273,-11z"></path></g><g opacity="1" transform="matrix(1,0,0,1,76.5999984741211,91)"><path fill="rgb(249,246,224)" fill-opacity="1" d=" M10.399999618530273,-10 C10.399999618530273,-10 10.399999618530273,-0.5 10.399999618530273,-0.5 C10.399999618530273,5.300000190734863 5.699999809265137,10 -0.10000000149011612,10 C-0.10000000149011612,10 -0.4000000059604645,10 -0.4000000059604645,10 C-5.900000095367432,10 -10.399999618530273,5.5 -10.399999618530273,0 C-10.399999618530273,-5.5 -5.900000095367432,-10 -0.4000000059604645,-10 C-0.4000000059604645,-10 10.399999618530273,-10 10.399999618530273,-10z M10.899999618530273,-11 C10.899999618530273,-11 -0.4000000059604645,-11 -0.4000000059604645,-11 C-1.2000000476837158,-11 -2,-10.899999618530273 -2.700000047683716,-10.800000190734863 C-3.0999999046325684,-10.699999809265137 -3.4000000953674316,-10.600000381469727 -3.700000047683716,-10.5 C-8.199999809265137,-9.100000381469727 -11.399999618530273,-5 -11.399999618530273,0 C-11.399999618530273,6.099999904632568 -6.5,11 -0.4000000059604645,11 C-0.4000000059604645,11 -0.10000000149011612,11 -0.10000000149011612,11 C6.199999809265137,11 11.399999618530273,5.800000190734863 11.399999618530273,-0.5 C11.399999618530273,-0.5 11.399999618530273,-10.5 11.399999618530273,-10.5 C11.399999618530273,-10.800000190734863 11.199999809265137,-11 10.899999618530273,-11z"></path></g><g opacity="1" transform="matrix(1,0,0,1,98.4000015258789,49)"><path fill="rgb(249,246,224)" fill-opacity="1" d=" M0.4000000059604645,-11 C0.4000000059604645,-11 -10.899999618530273,-11 -10.899999618530273,-11 C-11.199999809265137,-11 -11.399999618530273,-10.800000190734863 -11.399999618530273,-10.5 C-11.399999618530273,-10.5 -11.399999618530273,10.5 -11.399999618530273,10.5 C-11.399999618530273,10.800000190734863 -11.199999809265137,11 -10.899999618530273,11 C-10.899999618530273,11 0.4000000059604645,11 0.4000000059604645,11 C1.2999999523162842,11 2.0999999046325684,10.899999618530273 3,10.699999809265137 C7.900000095367432,9.600000381469727 11.399999618530273,5.199999809265137 11.399999618530273,0 C11.399999618530273,-6.099999904632568 6.5,-11 0.4000000059604645,-11z"></path></g><g opacity="1" transform="matrix(1,0,0,1,97.80000305175781,69.6500015258789)"><path fill="rgb(249,246,224)" fill-opacity="1" d=" M0,9.649999618530273 C-0.6000000238418579,9.649999618530273 -1.2000000476837158,9.550000190734863 -1.7999999523162842,9.449999809265137 C-2.0999999046325684,9.449999809265137 -2.5,9.350000381469727 -2.799999952316284,9.25 C-6.699999809265137,8.050000190734863 -9.600000381469727,4.349999904632568 -9.600000381469727,0.05000000074505806 C-9.600000381469727,-4.25 -6.699999809265137,-7.949999809265137 -2.799999952316284,-9.149999618530273 C-2.5,-9.25 -2.0999999046325684,-9.350000381469727 -1.7999999523162842,-9.350000381469727 C-1.2000000476837158,-9.449999809265137 -0.6000000238418579,-9.550000190734863 0,-9.550000190734863 C5.300000190734863,-9.550000190734863 9.600000381469727,-5.25 9.600000381469727,0.05000000074505806 C9.600000381469727,5.349999904632568 5.300000190734863,9.649999618530273 0,9.649999618530273z M3.5999999046325684,-9.949999809265137 C2.5,-10.350000381469727 1.2999999523162842,-10.550000190734863 0,-10.550000190734863 C-0.6000000238418579,-10.550000190734863 -1.2000000476837158,-10.449999809265137 -1.7999999523162842,-10.350000381469727 C-2.0999999046325684,-10.25 -2.5,-10.25 -2.799999952316284,-10.149999618530273 C-3.299999952316284,-10.050000190734863 -3.799999952316284,-9.850000381469727 -4.199999809265137,-9.649999618530273 C-6.800000190734863,-8.550000190734863 -8.800000190734863,-6.550000190734863 -9.800000190734863,-3.950000047683716 C-10,-3.450000047683716 -10.199999809265137,-2.950000047683716 -10.300000190734863,-2.450000047683716 C-10.5,-1.649999976158142 -10.600000381469727,-0.75 -10.600000381469727,0.05000000074505806 C-10.600000381469727,0.8500000238418579 -10.5,1.75 -10.300000190734863,2.549999952316284 C-10.199999809265137,3.049999952316284 -10,3.549999952316284 -9.800000190734863,4.050000190734863 C-8.600000381469727,7.050000190734863 -6,9.350000381469727 -2.799999952316284,10.25 C-2.5,10.350000381469727 -2.0999999046325684,10.449999809265137 -1.7999999523162842,10.449999809265137 C-1.2000000476837158,10.550000190734863 -0.6000000238418579,10.550000190734863 0,10.550000190734863 C5.900000095367432,10.550000190734863 10.600000381469727,5.849999904632568 10.600000381469727,-0.05000000074505806 C10.600000381469727,-4.650000095367432 7.699999809265137,-8.449999809265137 3.5999999046325684,-9.949999809265137z"></path></g></g></g></svg>